<svg width="512" height="512" viewBox="0 0 512 512" fill="none" xmlns="http://www.w3.org/2000/svg">
  <defs>
    <linearGradient id="logoGradient" x1="0%" y1="0%" x2="100%" y2="100%">
      <stop offset="0%" style="stop-color:#00D9A3;stop-opacity:1" />
      <stop offset="50%" style="stop-color:#00C993;stop-opacity:1" />
      <stop offset="100%" style="stop-color:#8B7DD8;stop-opacity:1" />
    </linearGradient>
    <filter id="iconShadow" x="-50%" y="-50%" width="200%" height="200%">
      <feGaussianBlur in="SourceAlpha" stdDeviation="4"/>
      <feOffset dx="0" dy="2" result="offsetblur"/>
      <feComponentTransfer>
        <feFuncA type="linear" slope="0.3"/>
      </feComponentTransfer>
      <feMerge>
        <feMergeNode/>
        <feMergeNode in="SourceGraphic"/>
      </feMerge>
    </filter>
  </defs>
  
  <!-- Background with gradient -->
  <rect width="512" height="512" rx="64" fill="url(#logoGradient)"/>
  
  <!-- HandCoins icon in center - 24x24 viewBox scaled and centered -->
  <g transform="translate(256, 256) scale(12) translate(-12, -12)" fill="none" stroke="white" stroke-width="2.5" stroke-linecap="round" stroke-linejoin="round" filter="url(#iconShadow)">
    <path d="M11 15h2a2 2 0 1 0 0-4h-3c-.6 0-1.1.2-1.4.6L3 17"/>
    <path d="m7 21 1.6-1.4c.3-.4.8-.6 1.4-.6h4c1.1 0 2.1-.4 2.8-1.2l4.6-4.4a2 2 0 0 0-2.75-2.91l-4.2 3.9"/>
    <path d="m2 16 6 6"/>
    <circle cx="16" cy="9" r="2.9"/>
    <circle cx="6" cy="5" r="3"/>
  </g>
</svg>
